M48
; DRILL file {KiCad 8.0.8} date 2025-02-20T21:51:05-0700
; FORMAT={-:-/ absolute / inch / decimal}
; #@! TF.CreationDate,2025-02-20T21:51:05-07:00
; #@! TF.GenerationSoftware,Kicad,Pcbnew,8.0.8
; #@! TF.FileFunction,Plated,1,2,PTH
FMAT,2
INCH
; #@! TA.AperFunction,Plated,PTH,ViaDrill
T1C0.0118
; #@! TA.AperFunction,Plated,PTH,ComponentDrill
T2C0.0315
; #@! TA.AperFunction,Plated,PTH,ComponentDrill
T3C0.0350
; #@! TA.AperFunction,Plated,PTH,ComponentDrill
T4C0.0394
; #@! TA.AperFunction,Plated,PTH,ComponentDrill
T5C0.0591
; #@! TA.AperFunction,Plated,PTH,ComponentDrill
T6C0.1024
%
G90
G05
T1
X3.7835Y-4.1142
X3.9567Y-3.5709
X4.0315Y-3.7441
X4.1772Y-3.6929
X4.6102Y-3.6772
X4.7047Y-3.3937
X4.7992Y-3.5472
X6.0591Y-4.1063
X6.5315Y-3.7874
X6.5945Y-3.8661
T2
X4.7812Y-4.6312
X4.7812Y-4.9312
X4.7812Y-5.3812
X4.7812Y-5.6812
X5.5312Y-3.8813
X5.5312Y-4.1812
X5.5312Y-4.6312
X5.5312Y-4.9312
X5.5312Y-5.3812
X5.5312Y-5.6812
X6.2812Y-3.8813
X6.2812Y-4.1812
X6.2812Y-4.6312
X6.2812Y-4.9312
X6.2812Y-5.3812
X6.2812Y-5.6812
T3
X4.8998Y-2.8243
X4.8998Y-2.9243
X4.8998Y-3.0243
X4.8998Y-3.1243
X4.8998Y-3.2243
X4.8998Y-3.3243
X4.8998Y-3.4243
X5.4998Y-2.8243
X5.4998Y-2.9243
X5.4998Y-3.0243
X5.4998Y-3.1243
X5.4998Y-3.2243
X5.4998Y-3.3243
X5.4998Y-3.4243
T4
X4.1208Y-3.9328
X4.1208Y-4.0312
X4.1208Y-4.1297
X4.6917Y-3.9328
X4.6917Y-4.1297
T5
X4.2562Y-4.6812
X4.2562Y-5.4312
X4.5062Y-4.5812
X4.5062Y-5.3312
X5.0062Y-3.9312
X5.0062Y-4.6812
X5.0062Y-5.4312
X5.2562Y-3.8312
X5.2562Y-4.5812
X5.2562Y-5.3312
X5.7562Y-3.9312
X5.7562Y-4.6812
X5.7562Y-5.4312
X6.0062Y-3.8312
X6.0062Y-4.5812
X6.0062Y-5.3312
T6
X4.4161Y-3.8108
X4.4161Y-4.2517
M30
