%TF.GenerationSoftware,KiCad,Pcbnew,8.0.8*%
%TF.CreationDate,2025-02-20T21:51:01-07:00*%
%TF.ProjectId,my actual macropad,6d792061-6374-4756-916c-206d6163726f,rev?*%
%TF.SameCoordinates,Original*%
%TF.FileFunction,Soldermask,Bot*%
%TF.FilePolarity,Negative*%
%FSLAX46Y46*%
G04 Gerber Fmt 4.6, Leading zero omitted, Abs format (unit mm)*
G04 Created by KiCad (PCBNEW 8.0.8) date 2025-02-20 21:51:01*
%MOMM*%
%LPD*%
G01*
G04 APERTURE LIST*
%ADD10C,1.524000*%
%ADD11C,1.700000*%
%ADD12C,4.000000*%
%ADD13C,2.200000*%
%ADD14R,2.000000X2.000000*%
%ADD15C,2.000000*%
%ADD16C,3.200000*%
%ADD17R,1.600000X1.600000*%
%ADD18O,1.600000X1.600000*%
G04 APERTURE END LIST*
D10*
%TO.C,U1*%
X124455000Y-71736250D03*
X124455000Y-74276250D03*
X124455000Y-76816250D03*
X124455000Y-79356250D03*
X124455000Y-81896250D03*
X124455000Y-84436250D03*
X124455000Y-86976250D03*
X139695000Y-86976250D03*
X139695000Y-84436250D03*
X139695000Y-81896250D03*
X139695000Y-79356250D03*
X139695000Y-76816250D03*
X139695000Y-74276250D03*
X139695000Y-71736250D03*
%TD*%
D11*
%TO.C,SW9*%
X144938750Y-140493750D03*
D12*
X150018750Y-140493750D03*
D11*
X155098750Y-140493750D03*
D13*
X152558750Y-135413750D03*
X146208750Y-137953750D03*
%TD*%
D11*
%TO.C,SW8*%
X125888750Y-140493750D03*
D12*
X130968750Y-140493750D03*
D11*
X136048750Y-140493750D03*
D13*
X133508750Y-135413750D03*
X127158750Y-137953750D03*
%TD*%
D11*
%TO.C,SW7*%
X106838750Y-140493750D03*
D12*
X111918750Y-140493750D03*
D11*
X116998750Y-140493750D03*
D13*
X114458750Y-135413750D03*
X108108750Y-137953750D03*
%TD*%
D11*
%TO.C,SW6*%
X144938750Y-121443750D03*
D12*
X150018750Y-121443750D03*
D11*
X155098750Y-121443750D03*
D13*
X152558750Y-116363750D03*
X146208750Y-118903750D03*
%TD*%
D11*
%TO.C,SW5*%
X125888750Y-121443750D03*
D12*
X130968750Y-121443750D03*
D11*
X136048750Y-121443750D03*
D13*
X133508750Y-116363750D03*
X127158750Y-118903750D03*
%TD*%
D11*
%TO.C,SW4*%
X144938750Y-102393750D03*
D12*
X150018750Y-102393750D03*
D11*
X155098750Y-102393750D03*
D13*
X152558750Y-97313750D03*
X146208750Y-99853750D03*
%TD*%
D11*
%TO.C,SW3*%
X125888750Y-102393750D03*
D12*
X130968750Y-102393750D03*
D11*
X136048750Y-102393750D03*
D13*
X133508750Y-97313750D03*
X127158750Y-99853750D03*
%TD*%
D11*
%TO.C,SW2*%
X106838750Y-121443750D03*
D12*
X111918750Y-121443750D03*
D11*
X116998750Y-121443750D03*
D13*
X114458750Y-116363750D03*
X108108750Y-118903750D03*
%TD*%
D14*
%TO.C,SW1*%
X104668750Y-99893750D03*
D15*
X104668750Y-104893750D03*
X104668750Y-102393750D03*
D16*
X112168750Y-96793750D03*
X112168750Y-107993750D03*
D15*
X119168750Y-104893750D03*
X119168750Y-99893750D03*
%TD*%
D17*
%TO.C,D11*%
X140493750Y-144303750D03*
D18*
X140493750Y-136683750D03*
%TD*%
D17*
%TO.C,D9*%
X121443750Y-125253750D03*
D18*
X121443750Y-117633750D03*
%TD*%
%TO.C,D6*%
X140493750Y-98583750D03*
D17*
X140493750Y-106203750D03*
%TD*%
%TO.C,D7*%
X159543750Y-125253750D03*
D18*
X159543750Y-117633750D03*
%TD*%
D17*
%TO.C,D5*%
X159543750Y-106203750D03*
D18*
X159543750Y-98583750D03*
%TD*%
D17*
%TO.C,D12*%
X159543750Y-144303750D03*
D18*
X159543750Y-136683750D03*
%TD*%
D17*
%TO.C,D8*%
X140493750Y-125253750D03*
D18*
X140493750Y-117633750D03*
%TD*%
D17*
%TO.C,D10*%
X121443750Y-144303750D03*
D18*
X121443750Y-136683750D03*
%TD*%
M02*
