%TF.GenerationSoftware,KiCad,Pcbnew,8.0.8*%
%TF.CreationDate,2025-02-20T21:51:01-07:00*%
%TF.ProjectId,my actual macropad,6d792061-6374-4756-916c-206d6163726f,rev?*%
%TF.SameCoordinates,Original*%
%TF.FileFunction,Soldermask,Top*%
%TF.FilePolarity,Negative*%
%FSLAX46Y46*%
G04 Gerber Fmt 4.6, Leading zero omitted, Abs format (unit mm)*
G04 Created by KiCad (PCBNEW 8.0.8) date 2025-02-20 21:51:01*
%MOMM*%
%LPD*%
G01*
G04 APERTURE LIST*
G04 Aperture macros list*
%AMRoundRect*
0 Rectangle with rounded corners*
0 $1 Rounding radius*
0 $2 $3 $4 $5 $6 $7 $8 $9 X,Y pos of 4 corners*
0 Add a 4 corners polygon primitive as box body*
4,1,4,$2,$3,$4,$5,$6,$7,$8,$9,$2,$3,0*
0 Add four circle primitives for the rounded corners*
1,1,$1+$1,$2,$3*
1,1,$1+$1,$4,$5*
1,1,$1+$1,$6,$7*
1,1,$1+$1,$8,$9*
0 Add four rect primitives between the rounded corners*
20,1,$1+$1,$2,$3,$4,$5,0*
20,1,$1+$1,$4,$5,$6,$7,0*
20,1,$1+$1,$6,$7,$8,$9,0*
20,1,$1+$1,$8,$9,$2,$3,0*%
G04 Aperture macros list end*
%ADD10RoundRect,0.152400X1.063600X0.609600X-1.063600X0.609600X-1.063600X-0.609600X1.063600X-0.609600X0*%
%ADD11C,1.524000*%
%ADD12RoundRect,0.152400X-1.063600X-0.609600X1.063600X-0.609600X1.063600X0.609600X-1.063600X0.609600X0*%
%ADD13C,1.700000*%
%ADD14C,4.000000*%
%ADD15C,2.200000*%
%ADD16R,2.000000X2.000000*%
%ADD17C,2.000000*%
%ADD18C,3.200000*%
%ADD19R,1.600000X0.850000*%
%ADD20R,1.600000X1.600000*%
%ADD21O,1.600000X1.600000*%
G04 APERTURE END LIST*
D10*
%TO.C,U1*%
X123620000Y-71736250D03*
D11*
X124455000Y-71736250D03*
D10*
X123620000Y-74276250D03*
D11*
X124455000Y-74276250D03*
D10*
X123620000Y-76816250D03*
D11*
X124455000Y-76816250D03*
D10*
X123620000Y-79356250D03*
D11*
X124455000Y-79356250D03*
D10*
X123620000Y-81896250D03*
D11*
X124455000Y-81896250D03*
D10*
X123620000Y-84436250D03*
D11*
X124455000Y-84436250D03*
D10*
X123620000Y-86976250D03*
D11*
X124455000Y-86976250D03*
X139695000Y-86976250D03*
D12*
X140530000Y-86976250D03*
D11*
X139695000Y-84436250D03*
D12*
X140530000Y-84436250D03*
D11*
X139695000Y-81896250D03*
D12*
X140530000Y-81896250D03*
D11*
X139695000Y-79356250D03*
D12*
X140530000Y-79356250D03*
D11*
X139695000Y-76816250D03*
D12*
X140530000Y-76816250D03*
D11*
X139695000Y-74276250D03*
D12*
X140530000Y-74276250D03*
D11*
X139695000Y-71736250D03*
D12*
X140530000Y-71736250D03*
%TD*%
D13*
%TO.C,SW9*%
X144938750Y-140493750D03*
D14*
X150018750Y-140493750D03*
D13*
X155098750Y-140493750D03*
D15*
X152558750Y-135413750D03*
X146208750Y-137953750D03*
%TD*%
D13*
%TO.C,SW8*%
X125888750Y-140493750D03*
D14*
X130968750Y-140493750D03*
D13*
X136048750Y-140493750D03*
D15*
X133508750Y-135413750D03*
X127158750Y-137953750D03*
%TD*%
D13*
%TO.C,SW7*%
X106838750Y-140493750D03*
D14*
X111918750Y-140493750D03*
D13*
X116998750Y-140493750D03*
D15*
X114458750Y-135413750D03*
X108108750Y-137953750D03*
%TD*%
D13*
%TO.C,SW6*%
X144938750Y-121443750D03*
D14*
X150018750Y-121443750D03*
D13*
X155098750Y-121443750D03*
D15*
X152558750Y-116363750D03*
X146208750Y-118903750D03*
%TD*%
D13*
%TO.C,SW5*%
X125888750Y-121443750D03*
D14*
X130968750Y-121443750D03*
D13*
X136048750Y-121443750D03*
D15*
X133508750Y-116363750D03*
X127158750Y-118903750D03*
%TD*%
D13*
%TO.C,SW4*%
X144938750Y-102393750D03*
D14*
X150018750Y-102393750D03*
D13*
X155098750Y-102393750D03*
D15*
X152558750Y-97313750D03*
X146208750Y-99853750D03*
%TD*%
D13*
%TO.C,SW3*%
X125888750Y-102393750D03*
D14*
X130968750Y-102393750D03*
D13*
X136048750Y-102393750D03*
D15*
X133508750Y-97313750D03*
X127158750Y-99853750D03*
%TD*%
D13*
%TO.C,SW2*%
X106838750Y-121443750D03*
D14*
X111918750Y-121443750D03*
D13*
X116998750Y-121443750D03*
D15*
X114458750Y-116363750D03*
X108108750Y-118903750D03*
%TD*%
D16*
%TO.C,SW1*%
X104668750Y-99893750D03*
D17*
X104668750Y-104893750D03*
X104668750Y-102393750D03*
D18*
X112168750Y-96793750D03*
X112168750Y-107993750D03*
D17*
X119168750Y-104893750D03*
X119168750Y-99893750D03*
%TD*%
D19*
%TO.C,D1*%
X95000000Y-101500000D03*
X95000000Y-103250000D03*
X98500000Y-103250000D03*
X98500000Y-101500000D03*
%TD*%
%TO.C,D2*%
X168100000Y-101600000D03*
X168100000Y-103350000D03*
X164600000Y-103350000D03*
X164600000Y-101600000D03*
%TD*%
%TO.C,D4*%
X164500000Y-151300000D03*
X164500000Y-153050000D03*
X168000000Y-153050000D03*
X168000000Y-151300000D03*
%TD*%
D20*
%TO.C,D11*%
X140493750Y-144303750D03*
D21*
X140493750Y-136683750D03*
%TD*%
D20*
%TO.C,D9*%
X121443750Y-125253750D03*
D21*
X121443750Y-117633750D03*
%TD*%
%TO.C,D6*%
X140493750Y-98583750D03*
D20*
X140493750Y-106203750D03*
%TD*%
%TO.C,D7*%
X159543750Y-125253750D03*
D21*
X159543750Y-117633750D03*
%TD*%
D20*
%TO.C,D5*%
X159543750Y-106203750D03*
D21*
X159543750Y-98583750D03*
%TD*%
D20*
%TO.C,D12*%
X159543750Y-144303750D03*
D21*
X159543750Y-136683750D03*
%TD*%
D20*
%TO.C,D8*%
X140493750Y-125253750D03*
D21*
X140493750Y-117633750D03*
%TD*%
D19*
%TO.C,D3*%
X95000000Y-151325000D03*
X95000000Y-153075000D03*
X98500000Y-153075000D03*
X98500000Y-151325000D03*
%TD*%
D20*
%TO.C,D10*%
X121443750Y-144303750D03*
D21*
X121443750Y-136683750D03*
%TD*%
M02*
