%TF.GenerationSoftware,KiCad,Pcbnew,8.0.8*%
%TF.CreationDate,2025-02-20T21:51:01-07:00*%
%TF.ProjectId,my actual macropad,6d792061-6374-4756-916c-206d6163726f,rev?*%
%TF.SameCoordinates,Original*%
%TF.FileFunction,Legend,Top*%
%TF.FilePolarity,Positive*%
%FSLAX46Y46*%
G04 Gerber Fmt 4.6, Leading zero omitted, Abs format (unit mm)*
G04 Created by KiCad (PCBNEW 8.0.8) date 2025-02-20 21:51:01*
%MOMM*%
%LPD*%
G01*
G04 APERTURE LIST*
%ADD10C,0.100000*%
%ADD11C,0.101600*%
%ADD12C,0.150000*%
%ADD13C,0.127000*%
%ADD14C,0.504000*%
%ADD15C,0.120000*%
%ADD16C,0.000000*%
G04 APERTURE END LIST*
D10*
X94510431Y-69952562D02*
X94510431Y-70952562D01*
X94510431Y-70095419D02*
X94581860Y-70023991D01*
X94581860Y-70023991D02*
X94724717Y-69952562D01*
X94724717Y-69952562D02*
X94939003Y-69952562D01*
X94939003Y-69952562D02*
X95081860Y-70023991D01*
X95081860Y-70023991D02*
X95153289Y-70166848D01*
X95153289Y-70166848D02*
X95153289Y-70952562D01*
X96510432Y-69952562D02*
X96510432Y-70952562D01*
X95867574Y-69952562D02*
X95867574Y-70738276D01*
X95867574Y-70738276D02*
X95939003Y-70881134D01*
X95939003Y-70881134D02*
X96081860Y-70952562D01*
X96081860Y-70952562D02*
X96296146Y-70952562D01*
X96296146Y-70952562D02*
X96439003Y-70881134D01*
X96439003Y-70881134D02*
X96510432Y-70809705D01*
X97224717Y-69952562D02*
X97224717Y-70952562D01*
X97224717Y-70095419D02*
X97296146Y-70023991D01*
X97296146Y-70023991D02*
X97439003Y-69952562D01*
X97439003Y-69952562D02*
X97653289Y-69952562D01*
X97653289Y-69952562D02*
X97796146Y-70023991D01*
X97796146Y-70023991D02*
X97867575Y-70166848D01*
X97867575Y-70166848D02*
X97867575Y-70952562D01*
X99224718Y-69952562D02*
X99224718Y-70952562D01*
X98581860Y-69952562D02*
X98581860Y-70738276D01*
X98581860Y-70738276D02*
X98653289Y-70881134D01*
X98653289Y-70881134D02*
X98796146Y-70952562D01*
X98796146Y-70952562D02*
X99010432Y-70952562D01*
X99010432Y-70952562D02*
X99153289Y-70881134D01*
X99153289Y-70881134D02*
X99224718Y-70809705D01*
X100010432Y-69452562D02*
X99867575Y-69738276D01*
X100581861Y-70881134D02*
X100724718Y-70952562D01*
X100724718Y-70952562D02*
X101010432Y-70952562D01*
X101010432Y-70952562D02*
X101153289Y-70881134D01*
X101153289Y-70881134D02*
X101224718Y-70738276D01*
X101224718Y-70738276D02*
X101224718Y-70666848D01*
X101224718Y-70666848D02*
X101153289Y-70523991D01*
X101153289Y-70523991D02*
X101010432Y-70452562D01*
X101010432Y-70452562D02*
X100796147Y-70452562D01*
X100796147Y-70452562D02*
X100653289Y-70381134D01*
X100653289Y-70381134D02*
X100581861Y-70238276D01*
X100581861Y-70238276D02*
X100581861Y-70166848D01*
X100581861Y-70166848D02*
X100653289Y-70023991D01*
X100653289Y-70023991D02*
X100796147Y-69952562D01*
X100796147Y-69952562D02*
X101010432Y-69952562D01*
X101010432Y-69952562D02*
X101153289Y-70023991D01*
X94510431Y-73367478D02*
X94510431Y-72367478D01*
X94510431Y-72510335D02*
X94581860Y-72438907D01*
X94581860Y-72438907D02*
X94724717Y-72367478D01*
X94724717Y-72367478D02*
X94939003Y-72367478D01*
X94939003Y-72367478D02*
X95081860Y-72438907D01*
X95081860Y-72438907D02*
X95153289Y-72581764D01*
X95153289Y-72581764D02*
X95153289Y-73367478D01*
X95153289Y-72581764D02*
X95224717Y-72438907D01*
X95224717Y-72438907D02*
X95367574Y-72367478D01*
X95367574Y-72367478D02*
X95581860Y-72367478D01*
X95581860Y-72367478D02*
X95724717Y-72438907D01*
X95724717Y-72438907D02*
X95796146Y-72581764D01*
X95796146Y-72581764D02*
X95796146Y-73367478D01*
X97153289Y-73367478D02*
X97153289Y-72581764D01*
X97153289Y-72581764D02*
X97081860Y-72438907D01*
X97081860Y-72438907D02*
X96939003Y-72367478D01*
X96939003Y-72367478D02*
X96653289Y-72367478D01*
X96653289Y-72367478D02*
X96510431Y-72438907D01*
X97153289Y-73296050D02*
X97010431Y-73367478D01*
X97010431Y-73367478D02*
X96653289Y-73367478D01*
X96653289Y-73367478D02*
X96510431Y-73296050D01*
X96510431Y-73296050D02*
X96439003Y-73153192D01*
X96439003Y-73153192D02*
X96439003Y-73010335D01*
X96439003Y-73010335D02*
X96510431Y-72867478D01*
X96510431Y-72867478D02*
X96653289Y-72796050D01*
X96653289Y-72796050D02*
X97010431Y-72796050D01*
X97010431Y-72796050D02*
X97153289Y-72724621D01*
X98510432Y-73296050D02*
X98367574Y-73367478D01*
X98367574Y-73367478D02*
X98081860Y-73367478D01*
X98081860Y-73367478D02*
X97939003Y-73296050D01*
X97939003Y-73296050D02*
X97867574Y-73224621D01*
X97867574Y-73224621D02*
X97796146Y-73081764D01*
X97796146Y-73081764D02*
X97796146Y-72653192D01*
X97796146Y-72653192D02*
X97867574Y-72510335D01*
X97867574Y-72510335D02*
X97939003Y-72438907D01*
X97939003Y-72438907D02*
X98081860Y-72367478D01*
X98081860Y-72367478D02*
X98367574Y-72367478D01*
X98367574Y-72367478D02*
X98510432Y-72438907D01*
X99153288Y-73367478D02*
X99153288Y-72367478D01*
X99153288Y-72653192D02*
X99224717Y-72510335D01*
X99224717Y-72510335D02*
X99296146Y-72438907D01*
X99296146Y-72438907D02*
X99439003Y-72367478D01*
X99439003Y-72367478D02*
X99581860Y-72367478D01*
X100296145Y-73367478D02*
X100153288Y-73296050D01*
X100153288Y-73296050D02*
X100081859Y-73224621D01*
X100081859Y-73224621D02*
X100010431Y-73081764D01*
X100010431Y-73081764D02*
X100010431Y-72653192D01*
X100010431Y-72653192D02*
X100081859Y-72510335D01*
X100081859Y-72510335D02*
X100153288Y-72438907D01*
X100153288Y-72438907D02*
X100296145Y-72367478D01*
X100296145Y-72367478D02*
X100510431Y-72367478D01*
X100510431Y-72367478D02*
X100653288Y-72438907D01*
X100653288Y-72438907D02*
X100724717Y-72510335D01*
X100724717Y-72510335D02*
X100796145Y-72653192D01*
X100796145Y-72653192D02*
X100796145Y-73081764D01*
X100796145Y-73081764D02*
X100724717Y-73224621D01*
X100724717Y-73224621D02*
X100653288Y-73296050D01*
X100653288Y-73296050D02*
X100510431Y-73367478D01*
X100510431Y-73367478D02*
X100296145Y-73367478D01*
X101439002Y-72367478D02*
X101439002Y-73867478D01*
X101439002Y-72438907D02*
X101581860Y-72367478D01*
X101581860Y-72367478D02*
X101867574Y-72367478D01*
X101867574Y-72367478D02*
X102010431Y-72438907D01*
X102010431Y-72438907D02*
X102081860Y-72510335D01*
X102081860Y-72510335D02*
X102153288Y-72653192D01*
X102153288Y-72653192D02*
X102153288Y-73081764D01*
X102153288Y-73081764D02*
X102081860Y-73224621D01*
X102081860Y-73224621D02*
X102010431Y-73296050D01*
X102010431Y-73296050D02*
X101867574Y-73367478D01*
X101867574Y-73367478D02*
X101581860Y-73367478D01*
X101581860Y-73367478D02*
X101439002Y-73296050D01*
X103439003Y-73367478D02*
X103439003Y-72581764D01*
X103439003Y-72581764D02*
X103367574Y-72438907D01*
X103367574Y-72438907D02*
X103224717Y-72367478D01*
X103224717Y-72367478D02*
X102939003Y-72367478D01*
X102939003Y-72367478D02*
X102796145Y-72438907D01*
X103439003Y-73296050D02*
X103296145Y-73367478D01*
X103296145Y-73367478D02*
X102939003Y-73367478D01*
X102939003Y-73367478D02*
X102796145Y-73296050D01*
X102796145Y-73296050D02*
X102724717Y-73153192D01*
X102724717Y-73153192D02*
X102724717Y-73010335D01*
X102724717Y-73010335D02*
X102796145Y-72867478D01*
X102796145Y-72867478D02*
X102939003Y-72796050D01*
X102939003Y-72796050D02*
X103296145Y-72796050D01*
X103296145Y-72796050D02*
X103439003Y-72724621D01*
X104796146Y-73367478D02*
X104796146Y-71867478D01*
X104796146Y-73296050D02*
X104653288Y-73367478D01*
X104653288Y-73367478D02*
X104367574Y-73367478D01*
X104367574Y-73367478D02*
X104224717Y-73296050D01*
X104224717Y-73296050D02*
X104153288Y-73224621D01*
X104153288Y-73224621D02*
X104081860Y-73081764D01*
X104081860Y-73081764D02*
X104081860Y-72653192D01*
X104081860Y-72653192D02*
X104153288Y-72510335D01*
X104153288Y-72510335D02*
X104224717Y-72438907D01*
X104224717Y-72438907D02*
X104367574Y-72367478D01*
X104367574Y-72367478D02*
X104653288Y-72367478D01*
X104653288Y-72367478D02*
X104796146Y-72438907D01*
X127633646Y-75809919D02*
X128157455Y-75143252D01*
X127633646Y-75143252D02*
X128157455Y-75809919D01*
X128538408Y-75809919D02*
X128538408Y-75143252D01*
X128538408Y-74809919D02*
X128490789Y-74857538D01*
X128490789Y-74857538D02*
X128538408Y-74905157D01*
X128538408Y-74905157D02*
X128586027Y-74857538D01*
X128586027Y-74857538D02*
X128538408Y-74809919D01*
X128538408Y-74809919D02*
X128538408Y-74905157D01*
X129443169Y-75809919D02*
X129443169Y-75286109D01*
X129443169Y-75286109D02*
X129395550Y-75190871D01*
X129395550Y-75190871D02*
X129300312Y-75143252D01*
X129300312Y-75143252D02*
X129109836Y-75143252D01*
X129109836Y-75143252D02*
X129014598Y-75190871D01*
X129443169Y-75762300D02*
X129347931Y-75809919D01*
X129347931Y-75809919D02*
X129109836Y-75809919D01*
X129109836Y-75809919D02*
X129014598Y-75762300D01*
X129014598Y-75762300D02*
X128966979Y-75667061D01*
X128966979Y-75667061D02*
X128966979Y-75571823D01*
X128966979Y-75571823D02*
X129014598Y-75476585D01*
X129014598Y-75476585D02*
X129109836Y-75428966D01*
X129109836Y-75428966D02*
X129347931Y-75428966D01*
X129347931Y-75428966D02*
X129443169Y-75381347D01*
X130062217Y-75809919D02*
X129966979Y-75762300D01*
X129966979Y-75762300D02*
X129919360Y-75714680D01*
X129919360Y-75714680D02*
X129871741Y-75619442D01*
X129871741Y-75619442D02*
X129871741Y-75333728D01*
X129871741Y-75333728D02*
X129919360Y-75238490D01*
X129919360Y-75238490D02*
X129966979Y-75190871D01*
X129966979Y-75190871D02*
X130062217Y-75143252D01*
X130062217Y-75143252D02*
X130205074Y-75143252D01*
X130205074Y-75143252D02*
X130300312Y-75190871D01*
X130300312Y-75190871D02*
X130347931Y-75238490D01*
X130347931Y-75238490D02*
X130395550Y-75333728D01*
X130395550Y-75333728D02*
X130395550Y-75619442D01*
X130395550Y-75619442D02*
X130347931Y-75714680D01*
X130347931Y-75714680D02*
X130300312Y-75762300D01*
X130300312Y-75762300D02*
X130205074Y-75809919D01*
X130205074Y-75809919D02*
X130062217Y-75809919D01*
X131586027Y-75809919D02*
X131586027Y-74809919D01*
X132014598Y-75809919D02*
X132014598Y-75286109D01*
X132014598Y-75286109D02*
X131966979Y-75190871D01*
X131966979Y-75190871D02*
X131871741Y-75143252D01*
X131871741Y-75143252D02*
X131728884Y-75143252D01*
X131728884Y-75143252D02*
X131633646Y-75190871D01*
X131633646Y-75190871D02*
X131586027Y-75238490D01*
X132871741Y-75762300D02*
X132776503Y-75809919D01*
X132776503Y-75809919D02*
X132586027Y-75809919D01*
X132586027Y-75809919D02*
X132490789Y-75762300D01*
X132490789Y-75762300D02*
X132443170Y-75667061D01*
X132443170Y-75667061D02*
X132443170Y-75286109D01*
X132443170Y-75286109D02*
X132490789Y-75190871D01*
X132490789Y-75190871D02*
X132586027Y-75143252D01*
X132586027Y-75143252D02*
X132776503Y-75143252D01*
X132776503Y-75143252D02*
X132871741Y-75190871D01*
X132871741Y-75190871D02*
X132919360Y-75286109D01*
X132919360Y-75286109D02*
X132919360Y-75381347D01*
X132919360Y-75381347D02*
X132443170Y-75476585D01*
X133347932Y-75809919D02*
X133347932Y-75143252D01*
X133347932Y-75333728D02*
X133395551Y-75238490D01*
X133395551Y-75238490D02*
X133443170Y-75190871D01*
X133443170Y-75190871D02*
X133538408Y-75143252D01*
X133538408Y-75143252D02*
X133633646Y-75143252D01*
X134347932Y-75762300D02*
X134252694Y-75809919D01*
X134252694Y-75809919D02*
X134062218Y-75809919D01*
X134062218Y-75809919D02*
X133966980Y-75762300D01*
X133966980Y-75762300D02*
X133919361Y-75667061D01*
X133919361Y-75667061D02*
X133919361Y-75286109D01*
X133919361Y-75286109D02*
X133966980Y-75190871D01*
X133966980Y-75190871D02*
X134062218Y-75143252D01*
X134062218Y-75143252D02*
X134252694Y-75143252D01*
X134252694Y-75143252D02*
X134347932Y-75190871D01*
X134347932Y-75190871D02*
X134395551Y-75286109D01*
X134395551Y-75286109D02*
X134395551Y-75381347D01*
X134395551Y-75381347D02*
X133919361Y-75476585D01*
D11*
X123091190Y-67009729D02*
X123091190Y-67523776D01*
X123091190Y-67523776D02*
X123121428Y-67584252D01*
X123121428Y-67584252D02*
X123151666Y-67614491D01*
X123151666Y-67614491D02*
X123212142Y-67644729D01*
X123212142Y-67644729D02*
X123333095Y-67644729D01*
X123333095Y-67644729D02*
X123393571Y-67614491D01*
X123393571Y-67614491D02*
X123423809Y-67584252D01*
X123423809Y-67584252D02*
X123454047Y-67523776D01*
X123454047Y-67523776D02*
X123454047Y-67009729D01*
X124089047Y-67644729D02*
X123726190Y-67644729D01*
X123907618Y-67644729D02*
X123907618Y-67009729D01*
X123907618Y-67009729D02*
X123847142Y-67100443D01*
X123847142Y-67100443D02*
X123786666Y-67160919D01*
X123786666Y-67160919D02*
X123726190Y-67191157D01*
D12*
X148685417Y-133026950D02*
X148828274Y-133074569D01*
X148828274Y-133074569D02*
X149066369Y-133074569D01*
X149066369Y-133074569D02*
X149161607Y-133026950D01*
X149161607Y-133026950D02*
X149209226Y-132979330D01*
X149209226Y-132979330D02*
X149256845Y-132884092D01*
X149256845Y-132884092D02*
X149256845Y-132788854D01*
X149256845Y-132788854D02*
X149209226Y-132693616D01*
X149209226Y-132693616D02*
X149161607Y-132645997D01*
X149161607Y-132645997D02*
X149066369Y-132598378D01*
X149066369Y-132598378D02*
X148875893Y-132550759D01*
X148875893Y-132550759D02*
X148780655Y-132503140D01*
X148780655Y-132503140D02*
X148733036Y-132455521D01*
X148733036Y-132455521D02*
X148685417Y-132360283D01*
X148685417Y-132360283D02*
X148685417Y-132265045D01*
X148685417Y-132265045D02*
X148733036Y-132169807D01*
X148733036Y-132169807D02*
X148780655Y-132122188D01*
X148780655Y-132122188D02*
X148875893Y-132074569D01*
X148875893Y-132074569D02*
X149113988Y-132074569D01*
X149113988Y-132074569D02*
X149256845Y-132122188D01*
X149590179Y-132074569D02*
X149828274Y-133074569D01*
X149828274Y-133074569D02*
X150018750Y-132360283D01*
X150018750Y-132360283D02*
X150209226Y-133074569D01*
X150209226Y-133074569D02*
X150447322Y-132074569D01*
X150875893Y-133074569D02*
X151066369Y-133074569D01*
X151066369Y-133074569D02*
X151161607Y-133026950D01*
X151161607Y-133026950D02*
X151209226Y-132979330D01*
X151209226Y-132979330D02*
X151304464Y-132836473D01*
X151304464Y-132836473D02*
X151352083Y-132645997D01*
X151352083Y-132645997D02*
X151352083Y-132265045D01*
X151352083Y-132265045D02*
X151304464Y-132169807D01*
X151304464Y-132169807D02*
X151256845Y-132122188D01*
X151256845Y-132122188D02*
X151161607Y-132074569D01*
X151161607Y-132074569D02*
X150971131Y-132074569D01*
X150971131Y-132074569D02*
X150875893Y-132122188D01*
X150875893Y-132122188D02*
X150828274Y-132169807D01*
X150828274Y-132169807D02*
X150780655Y-132265045D01*
X150780655Y-132265045D02*
X150780655Y-132503140D01*
X150780655Y-132503140D02*
X150828274Y-132598378D01*
X150828274Y-132598378D02*
X150875893Y-132645997D01*
X150875893Y-132645997D02*
X150971131Y-132693616D01*
X150971131Y-132693616D02*
X151161607Y-132693616D01*
X151161607Y-132693616D02*
X151256845Y-132645997D01*
X151256845Y-132645997D02*
X151304464Y-132598378D01*
X151304464Y-132598378D02*
X151352083Y-132503140D01*
X129635417Y-133026950D02*
X129778274Y-133074569D01*
X129778274Y-133074569D02*
X130016369Y-133074569D01*
X130016369Y-133074569D02*
X130111607Y-133026950D01*
X130111607Y-133026950D02*
X130159226Y-132979330D01*
X130159226Y-132979330D02*
X130206845Y-132884092D01*
X130206845Y-132884092D02*
X130206845Y-132788854D01*
X130206845Y-132788854D02*
X130159226Y-132693616D01*
X130159226Y-132693616D02*
X130111607Y-132645997D01*
X130111607Y-132645997D02*
X130016369Y-132598378D01*
X130016369Y-132598378D02*
X129825893Y-132550759D01*
X129825893Y-132550759D02*
X129730655Y-132503140D01*
X129730655Y-132503140D02*
X129683036Y-132455521D01*
X129683036Y-132455521D02*
X129635417Y-132360283D01*
X129635417Y-132360283D02*
X129635417Y-132265045D01*
X129635417Y-132265045D02*
X129683036Y-132169807D01*
X129683036Y-132169807D02*
X129730655Y-132122188D01*
X129730655Y-132122188D02*
X129825893Y-132074569D01*
X129825893Y-132074569D02*
X130063988Y-132074569D01*
X130063988Y-132074569D02*
X130206845Y-132122188D01*
X130540179Y-132074569D02*
X130778274Y-133074569D01*
X130778274Y-133074569D02*
X130968750Y-132360283D01*
X130968750Y-132360283D02*
X131159226Y-133074569D01*
X131159226Y-133074569D02*
X131397322Y-132074569D01*
X131921131Y-132503140D02*
X131825893Y-132455521D01*
X131825893Y-132455521D02*
X131778274Y-132407902D01*
X131778274Y-132407902D02*
X131730655Y-132312664D01*
X131730655Y-132312664D02*
X131730655Y-132265045D01*
X131730655Y-132265045D02*
X131778274Y-132169807D01*
X131778274Y-132169807D02*
X131825893Y-132122188D01*
X131825893Y-132122188D02*
X131921131Y-132074569D01*
X131921131Y-132074569D02*
X132111607Y-132074569D01*
X132111607Y-132074569D02*
X132206845Y-132122188D01*
X132206845Y-132122188D02*
X132254464Y-132169807D01*
X132254464Y-132169807D02*
X132302083Y-132265045D01*
X132302083Y-132265045D02*
X132302083Y-132312664D01*
X132302083Y-132312664D02*
X132254464Y-132407902D01*
X132254464Y-132407902D02*
X132206845Y-132455521D01*
X132206845Y-132455521D02*
X132111607Y-132503140D01*
X132111607Y-132503140D02*
X131921131Y-132503140D01*
X131921131Y-132503140D02*
X131825893Y-132550759D01*
X131825893Y-132550759D02*
X131778274Y-132598378D01*
X131778274Y-132598378D02*
X131730655Y-132693616D01*
X131730655Y-132693616D02*
X131730655Y-132884092D01*
X131730655Y-132884092D02*
X131778274Y-132979330D01*
X131778274Y-132979330D02*
X131825893Y-133026950D01*
X131825893Y-133026950D02*
X131921131Y-133074569D01*
X131921131Y-133074569D02*
X132111607Y-133074569D01*
X132111607Y-133074569D02*
X132206845Y-133026950D01*
X132206845Y-133026950D02*
X132254464Y-132979330D01*
X132254464Y-132979330D02*
X132302083Y-132884092D01*
X132302083Y-132884092D02*
X132302083Y-132693616D01*
X132302083Y-132693616D02*
X132254464Y-132598378D01*
X132254464Y-132598378D02*
X132206845Y-132550759D01*
X132206845Y-132550759D02*
X132111607Y-132503140D01*
X110585417Y-133026950D02*
X110728274Y-133074569D01*
X110728274Y-133074569D02*
X110966369Y-133074569D01*
X110966369Y-133074569D02*
X111061607Y-133026950D01*
X111061607Y-133026950D02*
X111109226Y-132979330D01*
X111109226Y-132979330D02*
X111156845Y-132884092D01*
X111156845Y-132884092D02*
X111156845Y-132788854D01*
X111156845Y-132788854D02*
X111109226Y-132693616D01*
X111109226Y-132693616D02*
X111061607Y-132645997D01*
X111061607Y-132645997D02*
X110966369Y-132598378D01*
X110966369Y-132598378D02*
X110775893Y-132550759D01*
X110775893Y-132550759D02*
X110680655Y-132503140D01*
X110680655Y-132503140D02*
X110633036Y-132455521D01*
X110633036Y-132455521D02*
X110585417Y-132360283D01*
X110585417Y-132360283D02*
X110585417Y-132265045D01*
X110585417Y-132265045D02*
X110633036Y-132169807D01*
X110633036Y-132169807D02*
X110680655Y-132122188D01*
X110680655Y-132122188D02*
X110775893Y-132074569D01*
X110775893Y-132074569D02*
X111013988Y-132074569D01*
X111013988Y-132074569D02*
X111156845Y-132122188D01*
X111490179Y-132074569D02*
X111728274Y-133074569D01*
X111728274Y-133074569D02*
X111918750Y-132360283D01*
X111918750Y-132360283D02*
X112109226Y-133074569D01*
X112109226Y-133074569D02*
X112347322Y-132074569D01*
X112633036Y-132074569D02*
X113299702Y-132074569D01*
X113299702Y-132074569D02*
X112871131Y-133074569D01*
X148685417Y-113976950D02*
X148828274Y-114024569D01*
X148828274Y-114024569D02*
X149066369Y-114024569D01*
X149066369Y-114024569D02*
X149161607Y-113976950D01*
X149161607Y-113976950D02*
X149209226Y-113929330D01*
X149209226Y-113929330D02*
X149256845Y-113834092D01*
X149256845Y-113834092D02*
X149256845Y-113738854D01*
X149256845Y-113738854D02*
X149209226Y-113643616D01*
X149209226Y-113643616D02*
X149161607Y-113595997D01*
X149161607Y-113595997D02*
X149066369Y-113548378D01*
X149066369Y-113548378D02*
X148875893Y-113500759D01*
X148875893Y-113500759D02*
X148780655Y-113453140D01*
X148780655Y-113453140D02*
X148733036Y-113405521D01*
X148733036Y-113405521D02*
X148685417Y-113310283D01*
X148685417Y-113310283D02*
X148685417Y-113215045D01*
X148685417Y-113215045D02*
X148733036Y-113119807D01*
X148733036Y-113119807D02*
X148780655Y-113072188D01*
X148780655Y-113072188D02*
X148875893Y-113024569D01*
X148875893Y-113024569D02*
X149113988Y-113024569D01*
X149113988Y-113024569D02*
X149256845Y-113072188D01*
X149590179Y-113024569D02*
X149828274Y-114024569D01*
X149828274Y-114024569D02*
X150018750Y-113310283D01*
X150018750Y-113310283D02*
X150209226Y-114024569D01*
X150209226Y-114024569D02*
X150447322Y-113024569D01*
X151256845Y-113024569D02*
X151066369Y-113024569D01*
X151066369Y-113024569D02*
X150971131Y-113072188D01*
X150971131Y-113072188D02*
X150923512Y-113119807D01*
X150923512Y-113119807D02*
X150828274Y-113262664D01*
X150828274Y-113262664D02*
X150780655Y-113453140D01*
X150780655Y-113453140D02*
X150780655Y-113834092D01*
X150780655Y-113834092D02*
X150828274Y-113929330D01*
X150828274Y-113929330D02*
X150875893Y-113976950D01*
X150875893Y-113976950D02*
X150971131Y-114024569D01*
X150971131Y-114024569D02*
X151161607Y-114024569D01*
X151161607Y-114024569D02*
X151256845Y-113976950D01*
X151256845Y-113976950D02*
X151304464Y-113929330D01*
X151304464Y-113929330D02*
X151352083Y-113834092D01*
X151352083Y-113834092D02*
X151352083Y-113595997D01*
X151352083Y-113595997D02*
X151304464Y-113500759D01*
X151304464Y-113500759D02*
X151256845Y-113453140D01*
X151256845Y-113453140D02*
X151161607Y-113405521D01*
X151161607Y-113405521D02*
X150971131Y-113405521D01*
X150971131Y-113405521D02*
X150875893Y-113453140D01*
X150875893Y-113453140D02*
X150828274Y-113500759D01*
X150828274Y-113500759D02*
X150780655Y-113595997D01*
X129635417Y-113976950D02*
X129778274Y-114024569D01*
X129778274Y-114024569D02*
X130016369Y-114024569D01*
X130016369Y-114024569D02*
X130111607Y-113976950D01*
X130111607Y-113976950D02*
X130159226Y-113929330D01*
X130159226Y-113929330D02*
X130206845Y-113834092D01*
X130206845Y-113834092D02*
X130206845Y-113738854D01*
X130206845Y-113738854D02*
X130159226Y-113643616D01*
X130159226Y-113643616D02*
X130111607Y-113595997D01*
X130111607Y-113595997D02*
X130016369Y-113548378D01*
X130016369Y-113548378D02*
X129825893Y-113500759D01*
X129825893Y-113500759D02*
X129730655Y-113453140D01*
X129730655Y-113453140D02*
X129683036Y-113405521D01*
X129683036Y-113405521D02*
X129635417Y-113310283D01*
X129635417Y-113310283D02*
X129635417Y-113215045D01*
X129635417Y-113215045D02*
X129683036Y-113119807D01*
X129683036Y-113119807D02*
X129730655Y-113072188D01*
X129730655Y-113072188D02*
X129825893Y-113024569D01*
X129825893Y-113024569D02*
X130063988Y-113024569D01*
X130063988Y-113024569D02*
X130206845Y-113072188D01*
X130540179Y-113024569D02*
X130778274Y-114024569D01*
X130778274Y-114024569D02*
X130968750Y-113310283D01*
X130968750Y-113310283D02*
X131159226Y-114024569D01*
X131159226Y-114024569D02*
X131397322Y-113024569D01*
X132254464Y-113024569D02*
X131778274Y-113024569D01*
X131778274Y-113024569D02*
X131730655Y-113500759D01*
X131730655Y-113500759D02*
X131778274Y-113453140D01*
X131778274Y-113453140D02*
X131873512Y-113405521D01*
X131873512Y-113405521D02*
X132111607Y-113405521D01*
X132111607Y-113405521D02*
X132206845Y-113453140D01*
X132206845Y-113453140D02*
X132254464Y-113500759D01*
X132254464Y-113500759D02*
X132302083Y-113595997D01*
X132302083Y-113595997D02*
X132302083Y-113834092D01*
X132302083Y-113834092D02*
X132254464Y-113929330D01*
X132254464Y-113929330D02*
X132206845Y-113976950D01*
X132206845Y-113976950D02*
X132111607Y-114024569D01*
X132111607Y-114024569D02*
X131873512Y-114024569D01*
X131873512Y-114024569D02*
X131778274Y-113976950D01*
X131778274Y-113976950D02*
X131730655Y-113929330D01*
X148685417Y-94926950D02*
X148828274Y-94974569D01*
X148828274Y-94974569D02*
X149066369Y-94974569D01*
X149066369Y-94974569D02*
X149161607Y-94926950D01*
X149161607Y-94926950D02*
X149209226Y-94879330D01*
X149209226Y-94879330D02*
X149256845Y-94784092D01*
X149256845Y-94784092D02*
X149256845Y-94688854D01*
X149256845Y-94688854D02*
X149209226Y-94593616D01*
X149209226Y-94593616D02*
X149161607Y-94545997D01*
X149161607Y-94545997D02*
X149066369Y-94498378D01*
X149066369Y-94498378D02*
X148875893Y-94450759D01*
X148875893Y-94450759D02*
X148780655Y-94403140D01*
X148780655Y-94403140D02*
X148733036Y-94355521D01*
X148733036Y-94355521D02*
X148685417Y-94260283D01*
X148685417Y-94260283D02*
X148685417Y-94165045D01*
X148685417Y-94165045D02*
X148733036Y-94069807D01*
X148733036Y-94069807D02*
X148780655Y-94022188D01*
X148780655Y-94022188D02*
X148875893Y-93974569D01*
X148875893Y-93974569D02*
X149113988Y-93974569D01*
X149113988Y-93974569D02*
X149256845Y-94022188D01*
X149590179Y-93974569D02*
X149828274Y-94974569D01*
X149828274Y-94974569D02*
X150018750Y-94260283D01*
X150018750Y-94260283D02*
X150209226Y-94974569D01*
X150209226Y-94974569D02*
X150447322Y-93974569D01*
X151256845Y-94307902D02*
X151256845Y-94974569D01*
X151018750Y-93926950D02*
X150780655Y-94641235D01*
X150780655Y-94641235D02*
X151399702Y-94641235D01*
X129635417Y-94926950D02*
X129778274Y-94974569D01*
X129778274Y-94974569D02*
X130016369Y-94974569D01*
X130016369Y-94974569D02*
X130111607Y-94926950D01*
X130111607Y-94926950D02*
X130159226Y-94879330D01*
X130159226Y-94879330D02*
X130206845Y-94784092D01*
X130206845Y-94784092D02*
X130206845Y-94688854D01*
X130206845Y-94688854D02*
X130159226Y-94593616D01*
X130159226Y-94593616D02*
X130111607Y-94545997D01*
X130111607Y-94545997D02*
X130016369Y-94498378D01*
X130016369Y-94498378D02*
X129825893Y-94450759D01*
X129825893Y-94450759D02*
X129730655Y-94403140D01*
X129730655Y-94403140D02*
X129683036Y-94355521D01*
X129683036Y-94355521D02*
X129635417Y-94260283D01*
X129635417Y-94260283D02*
X129635417Y-94165045D01*
X129635417Y-94165045D02*
X129683036Y-94069807D01*
X129683036Y-94069807D02*
X129730655Y-94022188D01*
X129730655Y-94022188D02*
X129825893Y-93974569D01*
X129825893Y-93974569D02*
X130063988Y-93974569D01*
X130063988Y-93974569D02*
X130206845Y-94022188D01*
X130540179Y-93974569D02*
X130778274Y-94974569D01*
X130778274Y-94974569D02*
X130968750Y-94260283D01*
X130968750Y-94260283D02*
X131159226Y-94974569D01*
X131159226Y-94974569D02*
X131397322Y-93974569D01*
X131683036Y-93974569D02*
X132302083Y-93974569D01*
X132302083Y-93974569D02*
X131968750Y-94355521D01*
X131968750Y-94355521D02*
X132111607Y-94355521D01*
X132111607Y-94355521D02*
X132206845Y-94403140D01*
X132206845Y-94403140D02*
X132254464Y-94450759D01*
X132254464Y-94450759D02*
X132302083Y-94545997D01*
X132302083Y-94545997D02*
X132302083Y-94784092D01*
X132302083Y-94784092D02*
X132254464Y-94879330D01*
X132254464Y-94879330D02*
X132206845Y-94926950D01*
X132206845Y-94926950D02*
X132111607Y-94974569D01*
X132111607Y-94974569D02*
X131825893Y-94974569D01*
X131825893Y-94974569D02*
X131730655Y-94926950D01*
X131730655Y-94926950D02*
X131683036Y-94879330D01*
X110585417Y-113976950D02*
X110728274Y-114024569D01*
X110728274Y-114024569D02*
X110966369Y-114024569D01*
X110966369Y-114024569D02*
X111061607Y-113976950D01*
X111061607Y-113976950D02*
X111109226Y-113929330D01*
X111109226Y-113929330D02*
X111156845Y-113834092D01*
X111156845Y-113834092D02*
X111156845Y-113738854D01*
X111156845Y-113738854D02*
X111109226Y-113643616D01*
X111109226Y-113643616D02*
X111061607Y-113595997D01*
X111061607Y-113595997D02*
X110966369Y-113548378D01*
X110966369Y-113548378D02*
X110775893Y-113500759D01*
X110775893Y-113500759D02*
X110680655Y-113453140D01*
X110680655Y-113453140D02*
X110633036Y-113405521D01*
X110633036Y-113405521D02*
X110585417Y-113310283D01*
X110585417Y-113310283D02*
X110585417Y-113215045D01*
X110585417Y-113215045D02*
X110633036Y-113119807D01*
X110633036Y-113119807D02*
X110680655Y-113072188D01*
X110680655Y-113072188D02*
X110775893Y-113024569D01*
X110775893Y-113024569D02*
X111013988Y-113024569D01*
X111013988Y-113024569D02*
X111156845Y-113072188D01*
X111490179Y-113024569D02*
X111728274Y-114024569D01*
X111728274Y-114024569D02*
X111918750Y-113310283D01*
X111918750Y-113310283D02*
X112109226Y-114024569D01*
X112109226Y-114024569D02*
X112347322Y-113024569D01*
X112680655Y-113119807D02*
X112728274Y-113072188D01*
X112728274Y-113072188D02*
X112823512Y-113024569D01*
X112823512Y-113024569D02*
X113061607Y-113024569D01*
X113061607Y-113024569D02*
X113156845Y-113072188D01*
X113156845Y-113072188D02*
X113204464Y-113119807D01*
X113204464Y-113119807D02*
X113252083Y-113215045D01*
X113252083Y-113215045D02*
X113252083Y-113310283D01*
X113252083Y-113310283D02*
X113204464Y-113453140D01*
X113204464Y-113453140D02*
X112633036Y-114024569D01*
X112633036Y-114024569D02*
X113252083Y-114024569D01*
X106135417Y-95600950D02*
X106278274Y-95648569D01*
X106278274Y-95648569D02*
X106516369Y-95648569D01*
X106516369Y-95648569D02*
X106611607Y-95600950D01*
X106611607Y-95600950D02*
X106659226Y-95553330D01*
X106659226Y-95553330D02*
X106706845Y-95458092D01*
X106706845Y-95458092D02*
X106706845Y-95362854D01*
X106706845Y-95362854D02*
X106659226Y-95267616D01*
X106659226Y-95267616D02*
X106611607Y-95219997D01*
X106611607Y-95219997D02*
X106516369Y-95172378D01*
X106516369Y-95172378D02*
X106325893Y-95124759D01*
X106325893Y-95124759D02*
X106230655Y-95077140D01*
X106230655Y-95077140D02*
X106183036Y-95029521D01*
X106183036Y-95029521D02*
X106135417Y-94934283D01*
X106135417Y-94934283D02*
X106135417Y-94839045D01*
X106135417Y-94839045D02*
X106183036Y-94743807D01*
X106183036Y-94743807D02*
X106230655Y-94696188D01*
X106230655Y-94696188D02*
X106325893Y-94648569D01*
X106325893Y-94648569D02*
X106563988Y-94648569D01*
X106563988Y-94648569D02*
X106706845Y-94696188D01*
X107040179Y-94648569D02*
X107278274Y-95648569D01*
X107278274Y-95648569D02*
X107468750Y-94934283D01*
X107468750Y-94934283D02*
X107659226Y-95648569D01*
X107659226Y-95648569D02*
X107897322Y-94648569D01*
X108802083Y-95648569D02*
X108230655Y-95648569D01*
X108516369Y-95648569D02*
X108516369Y-94648569D01*
X108516369Y-94648569D02*
X108421131Y-94791426D01*
X108421131Y-94791426D02*
X108325893Y-94886664D01*
X108325893Y-94886664D02*
X108230655Y-94934283D01*
X96011905Y-100079819D02*
X96011905Y-99079819D01*
X96011905Y-99079819D02*
X96250000Y-99079819D01*
X96250000Y-99079819D02*
X96392857Y-99127438D01*
X96392857Y-99127438D02*
X96488095Y-99222676D01*
X96488095Y-99222676D02*
X96535714Y-99317914D01*
X96535714Y-99317914D02*
X96583333Y-99508390D01*
X96583333Y-99508390D02*
X96583333Y-99651247D01*
X96583333Y-99651247D02*
X96535714Y-99841723D01*
X96535714Y-99841723D02*
X96488095Y-99936961D01*
X96488095Y-99936961D02*
X96392857Y-100032200D01*
X96392857Y-100032200D02*
X96250000Y-100079819D01*
X96250000Y-100079819D02*
X96011905Y-100079819D01*
X97535714Y-100079819D02*
X96964286Y-100079819D01*
X97250000Y-100079819D02*
X97250000Y-99079819D01*
X97250000Y-99079819D02*
X97154762Y-99222676D01*
X97154762Y-99222676D02*
X97059524Y-99317914D01*
X97059524Y-99317914D02*
X96964286Y-99365533D01*
X93778571Y-101862295D02*
X93321428Y-101862295D01*
X93550000Y-101862295D02*
X93550000Y-101062295D01*
X93550000Y-101062295D02*
X93473809Y-101176580D01*
X93473809Y-101176580D02*
X93397619Y-101252771D01*
X93397619Y-101252771D02*
X93321428Y-101290866D01*
X165611905Y-100179819D02*
X165611905Y-99179819D01*
X165611905Y-99179819D02*
X165850000Y-99179819D01*
X165850000Y-99179819D02*
X165992857Y-99227438D01*
X165992857Y-99227438D02*
X166088095Y-99322676D01*
X166088095Y-99322676D02*
X166135714Y-99417914D01*
X166135714Y-99417914D02*
X166183333Y-99608390D01*
X166183333Y-99608390D02*
X166183333Y-99751247D01*
X166183333Y-99751247D02*
X166135714Y-99941723D01*
X166135714Y-99941723D02*
X166088095Y-100036961D01*
X166088095Y-100036961D02*
X165992857Y-100132200D01*
X165992857Y-100132200D02*
X165850000Y-100179819D01*
X165850000Y-100179819D02*
X165611905Y-100179819D01*
X166564286Y-99275057D02*
X166611905Y-99227438D01*
X166611905Y-99227438D02*
X166707143Y-99179819D01*
X166707143Y-99179819D02*
X166945238Y-99179819D01*
X166945238Y-99179819D02*
X167040476Y-99227438D01*
X167040476Y-99227438D02*
X167088095Y-99275057D01*
X167088095Y-99275057D02*
X167135714Y-99370295D01*
X167135714Y-99370295D02*
X167135714Y-99465533D01*
X167135714Y-99465533D02*
X167088095Y-99608390D01*
X167088095Y-99608390D02*
X166516667Y-100179819D01*
X166516667Y-100179819D02*
X167135714Y-100179819D01*
X163378571Y-101962295D02*
X162921428Y-101962295D01*
X163150000Y-101962295D02*
X163150000Y-101162295D01*
X163150000Y-101162295D02*
X163073809Y-101276580D01*
X163073809Y-101276580D02*
X162997619Y-101352771D01*
X162997619Y-101352771D02*
X162921428Y-101390866D01*
X165511905Y-149879819D02*
X165511905Y-148879819D01*
X165511905Y-148879819D02*
X165750000Y-148879819D01*
X165750000Y-148879819D02*
X165892857Y-148927438D01*
X165892857Y-148927438D02*
X165988095Y-149022676D01*
X165988095Y-149022676D02*
X166035714Y-149117914D01*
X166035714Y-149117914D02*
X166083333Y-149308390D01*
X166083333Y-149308390D02*
X166083333Y-149451247D01*
X166083333Y-149451247D02*
X166035714Y-149641723D01*
X166035714Y-149641723D02*
X165988095Y-149736961D01*
X165988095Y-149736961D02*
X165892857Y-149832200D01*
X165892857Y-149832200D02*
X165750000Y-149879819D01*
X165750000Y-149879819D02*
X165511905Y-149879819D01*
X166940476Y-149213152D02*
X166940476Y-149879819D01*
X166702381Y-148832200D02*
X166464286Y-149546485D01*
X166464286Y-149546485D02*
X167083333Y-149546485D01*
X163278571Y-151662295D02*
X162821428Y-151662295D01*
X163050000Y-151662295D02*
X163050000Y-150862295D01*
X163050000Y-150862295D02*
X162973809Y-150976580D01*
X162973809Y-150976580D02*
X162897619Y-151052771D01*
X162897619Y-151052771D02*
X162821428Y-151090866D01*
X93778571Y-151687295D02*
X93321428Y-151687295D01*
X93550000Y-151687295D02*
X93550000Y-150887295D01*
X93550000Y-150887295D02*
X93473809Y-151001580D01*
X93473809Y-151001580D02*
X93397619Y-151077771D01*
X93397619Y-151077771D02*
X93321428Y-151115866D01*
D13*
%TO.C,U1*%
X123185000Y-87865250D02*
X123185000Y-70720250D01*
X125090000Y-89770250D02*
X139060000Y-89770250D01*
X127580000Y-68815250D02*
X127583728Y-67904978D01*
X128083728Y-67405250D02*
X136079000Y-67405250D01*
X136579000Y-67905250D02*
X136579000Y-68815250D01*
D10*
X139060000Y-68815250D02*
X125090000Y-68815250D01*
D13*
X139060000Y-68815250D02*
X125090000Y-68815250D01*
X140965000Y-87865250D02*
X140965000Y-70720250D01*
X123185000Y-70720250D02*
G75*
G02*
X125090000Y-68815250I1905001J-1D01*
G01*
X125090000Y-89770250D02*
G75*
G02*
X123185000Y-87865250I1J1905001D01*
G01*
X127583728Y-67904978D02*
G75*
G02*
X128083728Y-67405251I500018J-291D01*
G01*
X136079000Y-67405250D02*
G75*
G02*
X136579000Y-67905250I0J-500000D01*
G01*
X139060000Y-68815250D02*
G75*
G02*
X140965000Y-70720250I0J-1905000D01*
G01*
X140965000Y-87865250D02*
G75*
G02*
X139060000Y-89770250I-1905000J0D01*
G01*
D14*
X123377000Y-69056250D02*
G75*
G02*
X122873000Y-69056250I-252000J0D01*
G01*
X122873000Y-69056250D02*
G75*
G02*
X123377000Y-69056250I252000J0D01*
G01*
X124520000Y-69936250D02*
G75*
G02*
X124016000Y-69936250I-252000J0D01*
G01*
X124016000Y-69936250D02*
G75*
G02*
X124520000Y-69936250I252000J0D01*
G01*
D15*
%TO.C,SW9*%
X143033750Y-133508750D02*
X157003750Y-133508750D01*
X143033750Y-147478750D02*
X143033750Y-133508750D01*
X157003750Y-133508750D02*
X157003750Y-147478750D01*
X157003750Y-147478750D02*
X143033750Y-147478750D01*
%TO.C,SW8*%
X123983750Y-133508750D02*
X137953750Y-133508750D01*
X123983750Y-147478750D02*
X123983750Y-133508750D01*
X137953750Y-133508750D02*
X137953750Y-147478750D01*
X137953750Y-147478750D02*
X123983750Y-147478750D01*
%TO.C,SW7*%
X104933750Y-133508750D02*
X118903750Y-133508750D01*
X104933750Y-147478750D02*
X104933750Y-133508750D01*
X118903750Y-133508750D02*
X118903750Y-147478750D01*
X118903750Y-147478750D02*
X104933750Y-147478750D01*
%TO.C,SW6*%
X143033750Y-114458750D02*
X157003750Y-114458750D01*
X143033750Y-128428750D02*
X143033750Y-114458750D01*
X157003750Y-114458750D02*
X157003750Y-128428750D01*
X157003750Y-128428750D02*
X143033750Y-128428750D01*
%TO.C,SW5*%
X123983750Y-114458750D02*
X137953750Y-114458750D01*
X123983750Y-128428750D02*
X123983750Y-114458750D01*
X137953750Y-114458750D02*
X137953750Y-128428750D01*
X137953750Y-128428750D02*
X123983750Y-128428750D01*
%TO.C,SW4*%
X143033750Y-95408750D02*
X157003750Y-95408750D01*
X143033750Y-109378750D02*
X143033750Y-95408750D01*
X157003750Y-95408750D02*
X157003750Y-109378750D01*
X157003750Y-109378750D02*
X143033750Y-109378750D01*
%TO.C,SW3*%
X123983750Y-95408750D02*
X137953750Y-95408750D01*
X123983750Y-109378750D02*
X123983750Y-95408750D01*
X137953750Y-95408750D02*
X137953750Y-109378750D01*
X137953750Y-109378750D02*
X123983750Y-109378750D01*
%TO.C,SW2*%
X104933750Y-114458750D02*
X118903750Y-114458750D01*
X104933750Y-128428750D02*
X104933750Y-114458750D01*
X118903750Y-114458750D02*
X118903750Y-128428750D01*
X118903750Y-128428750D02*
X104933750Y-128428750D01*
%TO.C,SW1*%
X104368750Y-98293750D02*
X104968750Y-98293750D01*
X104668750Y-98593750D02*
X104368750Y-98293750D01*
X104968750Y-98293750D02*
X104668750Y-98593750D01*
X106068750Y-96493750D02*
X106068750Y-108293750D01*
X110168750Y-96493750D02*
X106068750Y-96493750D01*
X110168750Y-108293750D02*
X106068750Y-108293750D01*
X111668750Y-102393750D02*
X112668750Y-102393750D01*
X112168750Y-101893750D02*
X112168750Y-102893750D01*
X114168750Y-96493750D02*
X118268750Y-96493750D01*
X118268750Y-96493750D02*
X118268750Y-98893750D01*
X118268750Y-101093750D02*
X118268750Y-103693750D01*
X118268750Y-105893750D02*
X118268750Y-108293750D01*
X118268750Y-108293750D02*
X114168750Y-108293750D01*
X115168750Y-102393750D02*
G75*
G02*
X109168750Y-102393750I-3000000J0D01*
G01*
X109168750Y-102393750D02*
G75*
G02*
X115168750Y-102393750I3000000J0D01*
G01*
%TO.C,D1*%
X93950000Y-100375000D02*
X93950000Y-104375000D01*
X93950000Y-100375000D02*
X99550000Y-100375000D01*
X93950000Y-104375000D02*
X98950000Y-104375000D01*
X99550000Y-103775000D02*
X98950000Y-104375000D01*
X99550000Y-103775000D02*
X99550000Y-100375000D01*
%TO.C,D2*%
X169150000Y-103875000D02*
X169150000Y-100475000D01*
X169150000Y-103875000D02*
X168550000Y-104475000D01*
X163550000Y-104475000D02*
X168550000Y-104475000D01*
X163550000Y-100475000D02*
X169150000Y-100475000D01*
X163550000Y-100475000D02*
X163550000Y-104475000D01*
%TO.C,D4*%
X163450000Y-150175000D02*
X163450000Y-154175000D01*
X163450000Y-150175000D02*
X169050000Y-150175000D01*
X163450000Y-154175000D02*
X168450000Y-154175000D01*
X169050000Y-153575000D02*
X168450000Y-154175000D01*
X169050000Y-153575000D02*
X169050000Y-150175000D01*
D16*
%TO.C,G\u002A\u002A\u002A*%
G36*
X146833429Y-70628004D02*
G01*
X146887232Y-70870661D01*
X147021100Y-71216203D01*
X147288431Y-71466182D01*
X147668922Y-71605530D01*
X147860760Y-71656977D01*
X147954751Y-71712515D01*
X147956666Y-71719828D01*
X147883096Y-71776590D01*
X147695314Y-71854785D01*
X147554500Y-71900906D01*
X147315780Y-71986889D01*
X147157888Y-72099433D01*
X147027236Y-72287971D01*
X146930755Y-72476292D01*
X146808197Y-72703421D01*
X146711047Y-72839426D01*
X146665544Y-72857292D01*
X146618697Y-72728952D01*
X146565300Y-72519599D01*
X146563122Y-72509531D01*
X146415828Y-72204131D01*
X146139350Y-71971537D01*
X145789077Y-71845135D01*
X145569335Y-71782603D01*
X145526451Y-71726438D01*
X146275253Y-71726438D01*
X146502126Y-71962731D01*
X146729000Y-72199023D01*
X146884228Y-72004511D01*
X147037455Y-71863033D01*
X147167262Y-71810000D01*
X147199780Y-71762123D01*
X147099131Y-71623920D01*
X147012033Y-71534833D01*
X146729000Y-71259666D01*
X146502126Y-71493052D01*
X146275253Y-71726438D01*
X145526451Y-71726438D01*
X145516909Y-71713941D01*
X145630321Y-71646517D01*
X145838526Y-71598582D01*
X146192094Y-71458130D01*
X146463748Y-71186283D01*
X146626051Y-70811979D01*
X146638053Y-70755364D01*
X146698567Y-70548830D01*
X146766189Y-70507532D01*
X146833429Y-70628004D01*
G37*
G36*
X163108801Y-88278612D02*
G01*
X163145323Y-88428750D01*
X163264185Y-88782466D01*
X163482252Y-89017130D01*
X163826513Y-89165224D01*
X164056063Y-89252342D01*
X164154465Y-89337051D01*
X164112220Y-89399611D01*
X163949465Y-89420666D01*
X163610124Y-89498319D01*
X163344539Y-89716548D01*
X163179439Y-90053256D01*
X163178054Y-90058384D01*
X163107038Y-90282258D01*
X163042505Y-90417966D01*
X163019824Y-90436666D01*
X162967387Y-90362569D01*
X162899630Y-90174758D01*
X162867279Y-90057441D01*
X162762563Y-89783426D01*
X162587531Y-89592555D01*
X162304539Y-89453400D01*
X162053666Y-89378081D01*
X161799666Y-89311733D01*
X161858826Y-89294014D01*
X162597928Y-89294014D01*
X162702000Y-89419041D01*
X162747445Y-89460324D01*
X162908803Y-89596552D01*
X163006913Y-89668699D01*
X163015111Y-89671991D01*
X163092550Y-89624702D01*
X163247579Y-89503865D01*
X163296773Y-89463000D01*
X163440157Y-89320739D01*
X163444742Y-89254919D01*
X163419630Y-89251333D01*
X163278528Y-89187502D01*
X163159134Y-89063161D01*
X163027333Y-88874988D01*
X162895532Y-89063161D01*
X162753827Y-89204055D01*
X162636811Y-89251333D01*
X162597928Y-89294014D01*
X161858826Y-89294014D01*
X162180666Y-89197620D01*
X162551607Y-89031018D01*
X162786733Y-88782483D01*
X162907052Y-88440958D01*
X162970538Y-88219270D01*
X163040680Y-88165007D01*
X163108801Y-88278612D01*
G37*
G36*
X152501262Y-74737150D02*
G01*
X152563192Y-74973465D01*
X152567013Y-74993524D01*
X152714829Y-75355995D01*
X152987952Y-75620109D01*
X153324475Y-75750986D01*
X153571086Y-75812868D01*
X153650737Y-75877442D01*
X153562874Y-75948772D01*
X153306943Y-76030925D01*
X153285612Y-76036446D01*
X152928537Y-76174804D01*
X152702683Y-76389971D01*
X152575579Y-76715399D01*
X152561814Y-76782184D01*
X152500706Y-77016161D01*
X152434895Y-77081722D01*
X152361605Y-76978709D01*
X152293534Y-76766673D01*
X152165603Y-76425002D01*
X151974888Y-76204948D01*
X151675981Y-76061326D01*
X151546300Y-76023121D01*
X151324484Y-75952639D01*
X151191248Y-75888773D01*
X151174000Y-75867260D01*
X151203197Y-75848395D01*
X152010432Y-75848395D01*
X152021720Y-75933587D01*
X152142275Y-76075371D01*
X152174837Y-76109142D01*
X152401666Y-76343094D01*
X152657434Y-76129713D01*
X152913203Y-75916333D01*
X152657434Y-75654953D01*
X152491757Y-75499373D01*
X152395397Y-75458867D01*
X152329149Y-75518524D01*
X152323523Y-75527953D01*
X152188602Y-75690682D01*
X152096694Y-75768762D01*
X152010432Y-75848395D01*
X151203197Y-75848395D01*
X151248399Y-75819188D01*
X151433001Y-75770273D01*
X151491500Y-75759898D01*
X151854255Y-75655447D01*
X152095405Y-75460507D01*
X152250215Y-75142604D01*
X152281553Y-75032387D01*
X152364508Y-74766057D01*
X152436389Y-74667829D01*
X152501262Y-74737150D01*
G37*
G36*
X160292570Y-84515551D02*
G01*
X160366571Y-84678701D01*
X160438432Y-84903701D01*
X160578672Y-85362949D01*
X160725868Y-85697601D01*
X160912824Y-85940601D01*
X161172343Y-86124893D01*
X161537227Y-86283420D01*
X161948952Y-86420710D01*
X162193859Y-86508647D01*
X162345525Y-86585314D01*
X162372285Y-86629096D01*
X162262972Y-86676957D01*
X162037312Y-86749919D01*
X161743353Y-86832493D01*
X161732205Y-86835422D01*
X161301793Y-86979385D01*
X160984284Y-87172597D01*
X160746662Y-87448598D01*
X160555912Y-87840930D01*
X160454116Y-88133827D01*
X160355213Y-88416559D01*
X160270922Y-88605234D01*
X160215056Y-88670806D01*
X160204557Y-88658666D01*
X160158166Y-88516786D01*
X160077883Y-88267953D01*
X159983061Y-87972203D01*
X159830944Y-87575076D01*
X159646952Y-87292729D01*
X159391691Y-87087572D01*
X159025768Y-86922014D01*
X158803919Y-86847053D01*
X158506292Y-86748278D01*
X158275754Y-86663540D01*
X158156780Y-86609327D01*
X158151704Y-86605260D01*
X158187365Y-86572305D01*
X158782310Y-86572305D01*
X159211774Y-86732509D01*
X159621682Y-86956395D01*
X159934388Y-87296037D01*
X160150692Y-87718926D01*
X160264447Y-88006853D01*
X160377913Y-87679114D01*
X160513694Y-87396297D01*
X160695055Y-87139716D01*
X160716851Y-87116033D01*
X160936274Y-86942749D01*
X161226017Y-86780881D01*
X161348105Y-86729321D01*
X161753888Y-86577950D01*
X161376532Y-86466531D01*
X161007069Y-86286271D01*
X160681147Y-85999417D01*
X160444146Y-85653701D01*
X160353047Y-85389942D01*
X160293860Y-85074447D01*
X160132065Y-85508177D01*
X159883795Y-85963026D01*
X159525423Y-86289436D01*
X159123006Y-86470230D01*
X158782310Y-86572305D01*
X158187365Y-86572305D01*
X158201368Y-86559365D01*
X158379049Y-86483675D01*
X158649338Y-86392738D01*
X158722389Y-86370751D01*
X159181161Y-86208079D01*
X159508397Y-86012455D01*
X159741863Y-85747688D01*
X159919324Y-85377590D01*
X159996287Y-85150022D01*
X160094477Y-84849232D01*
X160180662Y-84612164D01*
X160237727Y-84485556D01*
X160241501Y-84480368D01*
X160292570Y-84515551D01*
G37*
G36*
X149584600Y-71487769D02*
G01*
X149660049Y-71638182D01*
X149756824Y-71894012D01*
X149807874Y-72048595D01*
X149933554Y-72397610D01*
X150071151Y-72705149D01*
X150196150Y-72918217D01*
X150227568Y-72955834D01*
X150406266Y-73081937D01*
X150689377Y-73220720D01*
X151017213Y-73343102D01*
X151031901Y-73347709D01*
X151334159Y-73445850D01*
X151571971Y-73530844D01*
X151699650Y-73586227D01*
X151706175Y-73590712D01*
X151663106Y-73637090D01*
X151490123Y-73712957D01*
X151220954Y-73804269D01*
X151122502Y-73833736D01*
X150670632Y-73992970D01*
X150344759Y-74167848D01*
X150244106Y-74250867D01*
X150097794Y-74449008D01*
X149938511Y-74741709D01*
X149792984Y-75069134D01*
X149687944Y-75371448D01*
X149650000Y-75580842D01*
X149629147Y-75706569D01*
X149573096Y-75684036D01*
X149491610Y-75528240D01*
X149394450Y-75254178D01*
X149358570Y-75133166D01*
X149200075Y-74691596D01*
X148991450Y-74363444D01*
X148699245Y-74116380D01*
X148290007Y-73918075D01*
X147995382Y-73815680D01*
X147706672Y-73715421D01*
X147572937Y-73657229D01*
X148209419Y-73657229D01*
X148306903Y-73687641D01*
X148347217Y-73695961D01*
X148766840Y-73863361D01*
X149129177Y-74172639D01*
X149396000Y-74580916D01*
X149516077Y-74819683D01*
X149589090Y-74921078D01*
X149634173Y-74903586D01*
X149658330Y-74834368D01*
X149733553Y-74624699D01*
X149843699Y-74384747D01*
X149844502Y-74383191D01*
X150107477Y-74056656D01*
X150518740Y-73808778D01*
X150791226Y-73710724D01*
X151131666Y-73608765D01*
X150782886Y-73513428D01*
X150315567Y-73306496D01*
X149958372Y-72971096D01*
X149710954Y-72506863D01*
X149651490Y-72318548D01*
X149611747Y-72198055D01*
X149573931Y-72200633D01*
X149516541Y-72342337D01*
X149482155Y-72445000D01*
X149326641Y-72826389D01*
X149129225Y-73093898D01*
X148841725Y-73300974D01*
X148603654Y-73419483D01*
X148340410Y-73541894D01*
X148214793Y-73614895D01*
X148209419Y-73657229D01*
X147572937Y-73657229D01*
X147510882Y-73630227D01*
X147436850Y-73573506D01*
X147448666Y-73561504D01*
X147587025Y-73517787D01*
X147837317Y-73438915D01*
X148149939Y-73340516D01*
X148209631Y-73321739D01*
X148610603Y-73170532D01*
X148897428Y-72987247D01*
X149104942Y-72734214D01*
X149267983Y-72373764D01*
X149363798Y-72073704D01*
X149446496Y-71792341D01*
X149514311Y-71565764D01*
X149543552Y-71471333D01*
X149584600Y-71487769D01*
G37*
G36*
X156353469Y-72496259D02*
G01*
X156425748Y-72638544D01*
X156512425Y-72884098D01*
X156520552Y-72910666D01*
X156825855Y-73907267D01*
X157092029Y-74747067D01*
X157321543Y-75437411D01*
X157516868Y-75985641D01*
X157680476Y-76399101D01*
X157738418Y-76530190D01*
X158140421Y-77209265D01*
X158668945Y-77776014D01*
X159322428Y-78228879D01*
X159559317Y-78350265D01*
X159875107Y-78485021D01*
X160322706Y-78655061D01*
X160870921Y-78849794D01*
X161488561Y-79058626D01*
X162144436Y-79270962D01*
X162807353Y-79476211D01*
X163323666Y-79628726D01*
X163545284Y-79705929D01*
X163639692Y-79768906D01*
X163620000Y-79796835D01*
X163502441Y-79834331D01*
X163249558Y-79911683D01*
X162888407Y-80020729D01*
X162446045Y-80153302D01*
X161949529Y-80301239D01*
X161884333Y-80320604D01*
X160991741Y-80594688D01*
X160240010Y-80853588D01*
X159610539Y-81115622D01*
X159084726Y-81399107D01*
X158643969Y-81722362D01*
X158269665Y-82103704D01*
X157943214Y-82561452D01*
X157646014Y-83113925D01*
X157359462Y-83779439D01*
X157064956Y-84576313D01*
X156813251Y-85314333D01*
X156276149Y-86923000D01*
X156172312Y-86542000D01*
X155997470Y-85928749D01*
X155799985Y-85283254D01*
X155592219Y-84642257D01*
X155386532Y-84042501D01*
X155195283Y-83520729D01*
X155030832Y-83113685D01*
X154984138Y-83009914D01*
X154591200Y-82327229D01*
X154104825Y-81775309D01*
X153504182Y-81331940D01*
X153306488Y-81220940D01*
X153031458Y-81094040D01*
X152629792Y-80932729D01*
X152137586Y-80749412D01*
X151590936Y-80556495D01*
X151025939Y-80366380D01*
X150478693Y-80191474D01*
X149985292Y-80044181D01*
X149581834Y-79936905D01*
X149544166Y-79928004D01*
X149284986Y-79860117D01*
X149108401Y-79799256D01*
X149057333Y-79765421D01*
X149092152Y-79748230D01*
X149705700Y-79748230D01*
X150207017Y-79892578D01*
X150947930Y-80114283D01*
X151653199Y-80341213D01*
X152293671Y-80563098D01*
X152840190Y-80769667D01*
X153263602Y-80950650D01*
X153397648Y-81016530D01*
X154009114Y-81423295D01*
X154558592Y-81962572D01*
X155014070Y-82600211D01*
X155187151Y-82925391D01*
X155368890Y-83343814D01*
X155572710Y-83873782D01*
X155780209Y-84462418D01*
X155972984Y-85056843D01*
X156132634Y-85604180D01*
X156173296Y-85759073D01*
X156286135Y-86203813D01*
X156760901Y-84785406D01*
X156941139Y-84268036D01*
X157132059Y-83755948D01*
X157316731Y-83292213D01*
X157478226Y-82919896D01*
X157560258Y-82752018D01*
X158006884Y-82082742D01*
X158583865Y-81504542D01*
X159266261Y-81040983D01*
X159493853Y-80924930D01*
X159928076Y-80738864D01*
X160494784Y-80525805D01*
X161161508Y-80297008D01*
X161895775Y-80063731D01*
X162473605Y-79891929D01*
X162978210Y-79746318D01*
X161669272Y-79346696D01*
X160947933Y-79121846D01*
X160363938Y-78927385D01*
X159890584Y-78751719D01*
X159501170Y-78583252D01*
X159168993Y-78410389D01*
X158867351Y-78221533D01*
X158569541Y-78005091D01*
X158556320Y-77994916D01*
X158193294Y-77631794D01*
X157832394Y-77107134D01*
X157477472Y-76428723D01*
X157132380Y-75604347D01*
X156800971Y-74641793D01*
X156650832Y-74143186D01*
X156358865Y-73132038D01*
X156132425Y-73889186D01*
X155868042Y-74751163D01*
X155632300Y-75467565D01*
X155416755Y-76058041D01*
X155212962Y-76542237D01*
X155012476Y-76939801D01*
X154806852Y-77270380D01*
X154587647Y-77553623D01*
X154528663Y-77620526D01*
X154177279Y-77956311D01*
X153747341Y-78265694D01*
X153221569Y-78556979D01*
X152582680Y-78838471D01*
X151813392Y-79118475D01*
X150896423Y-79405294D01*
X150689174Y-79465533D01*
X149705700Y-79748230D01*
X149092152Y-79748230D01*
X149134541Y-79727302D01*
X149349972Y-79649620D01*
X149679334Y-79540385D01*
X150098339Y-79407609D01*
X150582695Y-79259301D01*
X150687166Y-79227913D01*
X151576976Y-78952124D01*
X152334947Y-78689072D01*
X152976900Y-78421828D01*
X153518655Y-78133463D01*
X153976032Y-77807050D01*
X154364851Y-77425658D01*
X154700932Y-76972360D01*
X155000095Y-76430227D01*
X155278160Y-75782331D01*
X155550947Y-75011744D01*
X155834275Y-74101535D01*
X155997325Y-73545666D01*
X156108855Y-73162271D01*
X156206125Y-72831602D01*
X156277795Y-72591978D01*
X156310517Y-72487333D01*
X156353469Y-72496259D01*
G37*
D15*
%TO.C,D3*%
X93950000Y-150200000D02*
X93950000Y-154200000D01*
X93950000Y-150200000D02*
X99550000Y-150200000D01*
X93950000Y-154200000D02*
X98950000Y-154200000D01*
X99550000Y-153600000D02*
X98950000Y-154200000D01*
X99550000Y-153600000D02*
X99550000Y-150200000D01*
D16*
%TO.C,G\u002A\u002A\u002A*%
G36*
X115047233Y-70330321D02*
G01*
X115095168Y-70538526D01*
X115235620Y-70892094D01*
X115507467Y-71163748D01*
X115881771Y-71326051D01*
X115938386Y-71338053D01*
X116144920Y-71398567D01*
X116186218Y-71466189D01*
X116065746Y-71533429D01*
X115823089Y-71587232D01*
X115477547Y-71721100D01*
X115227568Y-71988431D01*
X115088220Y-72368922D01*
X115036773Y-72560760D01*
X114981235Y-72654751D01*
X114973922Y-72656666D01*
X114917160Y-72583096D01*
X114838965Y-72395314D01*
X114792844Y-72254500D01*
X114706861Y-72015780D01*
X114594317Y-71857888D01*
X114405779Y-71727236D01*
X114217458Y-71630755D01*
X113990329Y-71508197D01*
X113879457Y-71429000D01*
X114494727Y-71429000D01*
X114689239Y-71584228D01*
X114830717Y-71737455D01*
X114883750Y-71867262D01*
X114931627Y-71899780D01*
X115069830Y-71799131D01*
X115158917Y-71712033D01*
X115434084Y-71429000D01*
X115200698Y-71202126D01*
X114967312Y-70975253D01*
X114731019Y-71202126D01*
X114494727Y-71429000D01*
X113879457Y-71429000D01*
X113854324Y-71411047D01*
X113836458Y-71365544D01*
X113964798Y-71318697D01*
X114174151Y-71265300D01*
X114184219Y-71263122D01*
X114489619Y-71115828D01*
X114722213Y-70839350D01*
X114848615Y-70489077D01*
X114911147Y-70269335D01*
X114967312Y-70226451D01*
X114979809Y-70216909D01*
X115047233Y-70330321D01*
G37*
G36*
X97399736Y-86558826D02*
G01*
X97496130Y-86880666D01*
X97662732Y-87251607D01*
X97911267Y-87486733D01*
X98252792Y-87607052D01*
X98474480Y-87670538D01*
X98528743Y-87740680D01*
X98415138Y-87808801D01*
X98265000Y-87845323D01*
X97911284Y-87964185D01*
X97676620Y-88182252D01*
X97528526Y-88526513D01*
X97441408Y-88756063D01*
X97356699Y-88854465D01*
X97294139Y-88812220D01*
X97273084Y-88649465D01*
X97195431Y-88310124D01*
X96977202Y-88044539D01*
X96640494Y-87879439D01*
X96635366Y-87878054D01*
X96411492Y-87807038D01*
X96275784Y-87742505D01*
X96257084Y-87719824D01*
X96263744Y-87715111D01*
X97021759Y-87715111D01*
X97069048Y-87792550D01*
X97189885Y-87947579D01*
X97230750Y-87996773D01*
X97373011Y-88140157D01*
X97438831Y-88144742D01*
X97442417Y-88119630D01*
X97506248Y-87978528D01*
X97630589Y-87859134D01*
X97818762Y-87727333D01*
X97630589Y-87595532D01*
X97489695Y-87453827D01*
X97442417Y-87336811D01*
X97399736Y-87297928D01*
X97274709Y-87402000D01*
X97233426Y-87447445D01*
X97097198Y-87608803D01*
X97025051Y-87706913D01*
X97021759Y-87715111D01*
X96263744Y-87715111D01*
X96331181Y-87667387D01*
X96518992Y-87599630D01*
X96636309Y-87567279D01*
X96910324Y-87462563D01*
X97101195Y-87287531D01*
X97240350Y-87004539D01*
X97315669Y-86753666D01*
X97382017Y-86499666D01*
X97399736Y-86558826D01*
G37*
G36*
X110845355Y-75903197D02*
G01*
X110874562Y-75948399D01*
X110923477Y-76133001D01*
X110933852Y-76191500D01*
X111038303Y-76554255D01*
X111233243Y-76795405D01*
X111551146Y-76950215D01*
X111661363Y-76981553D01*
X111927693Y-77064508D01*
X112025921Y-77136389D01*
X111956600Y-77201262D01*
X111720285Y-77263192D01*
X111700226Y-77267013D01*
X111337755Y-77414829D01*
X111073641Y-77687952D01*
X110942764Y-78024475D01*
X110880882Y-78271086D01*
X110816308Y-78350737D01*
X110744978Y-78262874D01*
X110662825Y-78006943D01*
X110657304Y-77985612D01*
X110518946Y-77628537D01*
X110303779Y-77402683D01*
X109978351Y-77275579D01*
X109911566Y-77261814D01*
X109677589Y-77200706D01*
X109612028Y-77134895D01*
X109658733Y-77101666D01*
X110350656Y-77101666D01*
X110564037Y-77357434D01*
X110777417Y-77613203D01*
X111038797Y-77357434D01*
X111194377Y-77191757D01*
X111234883Y-77095397D01*
X111175226Y-77029149D01*
X111165797Y-77023523D01*
X111003068Y-76888602D01*
X110924988Y-76796694D01*
X110845355Y-76710432D01*
X110760163Y-76721720D01*
X110618379Y-76842275D01*
X110584608Y-76874837D01*
X110350656Y-77101666D01*
X109658733Y-77101666D01*
X109715041Y-77061605D01*
X109927077Y-76993534D01*
X110268748Y-76865603D01*
X110488802Y-76674888D01*
X110632424Y-76375981D01*
X110670629Y-76246300D01*
X110741111Y-76024484D01*
X110804977Y-75891248D01*
X110826490Y-75874000D01*
X110845355Y-75903197D01*
G37*
G36*
X100121445Y-82887365D02*
G01*
X100134385Y-82901368D01*
X100210075Y-83079049D01*
X100301012Y-83349338D01*
X100322999Y-83422389D01*
X100485671Y-83881161D01*
X100681295Y-84208397D01*
X100946062Y-84441863D01*
X101316160Y-84619324D01*
X101543728Y-84696287D01*
X101844518Y-84794477D01*
X102081586Y-84880662D01*
X102208194Y-84937727D01*
X102213382Y-84941501D01*
X102178199Y-84992570D01*
X102015049Y-85066571D01*
X101790049Y-85138432D01*
X101330801Y-85278672D01*
X100996149Y-85425868D01*
X100753149Y-85612824D01*
X100568857Y-85872343D01*
X100410330Y-86237227D01*
X100273040Y-86648952D01*
X100185103Y-86893859D01*
X100108436Y-87045525D01*
X100064654Y-87072285D01*
X100016793Y-86962972D01*
X99943831Y-86737312D01*
X99861257Y-86443353D01*
X99858328Y-86432205D01*
X99714365Y-86001793D01*
X99521153Y-85684284D01*
X99245152Y-85446662D01*
X98852820Y-85255912D01*
X98559923Y-85154116D01*
X98277191Y-85055213D01*
X98088516Y-84970922D01*
X98080916Y-84964447D01*
X98686897Y-84964447D01*
X99014636Y-85077913D01*
X99297453Y-85213694D01*
X99554034Y-85395055D01*
X99577717Y-85416851D01*
X99751001Y-85636274D01*
X99912869Y-85926017D01*
X99964429Y-86048105D01*
X100115800Y-86453888D01*
X100227219Y-86076532D01*
X100407479Y-85707069D01*
X100694333Y-85381147D01*
X101040049Y-85144146D01*
X101303808Y-85053047D01*
X101619303Y-84993860D01*
X101185573Y-84832065D01*
X100730724Y-84583795D01*
X100404314Y-84225423D01*
X100223520Y-83823006D01*
X100121445Y-83482310D01*
X99961241Y-83911774D01*
X99737355Y-84321682D01*
X99397713Y-84634388D01*
X98974824Y-84850692D01*
X98686897Y-84964447D01*
X98080916Y-84964447D01*
X98022944Y-84915056D01*
X98035084Y-84904557D01*
X98176964Y-84858166D01*
X98425797Y-84777883D01*
X98721547Y-84683061D01*
X99118674Y-84530944D01*
X99401021Y-84346952D01*
X99606178Y-84091691D01*
X99771736Y-83725768D01*
X99846697Y-83503919D01*
X99945472Y-83206292D01*
X100030210Y-82975754D01*
X100084423Y-82856780D01*
X100088490Y-82851704D01*
X100121445Y-82887365D01*
G37*
G36*
X113132246Y-72148666D02*
G01*
X113175963Y-72287025D01*
X113254835Y-72537317D01*
X113353234Y-72849939D01*
X113372011Y-72909631D01*
X113523218Y-73310603D01*
X113706503Y-73597428D01*
X113959536Y-73804942D01*
X114319986Y-73967983D01*
X114620046Y-74063798D01*
X114901409Y-74146496D01*
X115127986Y-74214311D01*
X115222417Y-74243552D01*
X115205981Y-74284600D01*
X115055568Y-74360049D01*
X114799738Y-74456824D01*
X114645155Y-74507874D01*
X114296140Y-74633554D01*
X113988601Y-74771151D01*
X113775533Y-74896150D01*
X113737916Y-74927568D01*
X113611813Y-75106266D01*
X113473030Y-75389377D01*
X113350648Y-75717213D01*
X113346041Y-75731901D01*
X113247900Y-76034159D01*
X113162906Y-76271971D01*
X113107523Y-76399650D01*
X113103038Y-76406175D01*
X113056660Y-76363106D01*
X112980793Y-76190123D01*
X112889481Y-75920954D01*
X112860014Y-75822502D01*
X112700780Y-75370632D01*
X112525902Y-75044759D01*
X112442883Y-74944106D01*
X112244742Y-74797794D01*
X111952041Y-74638511D01*
X111624616Y-74492984D01*
X111322302Y-74387944D01*
X111112908Y-74350000D01*
X110987181Y-74329147D01*
X111003284Y-74289090D01*
X111772672Y-74289090D01*
X111790164Y-74334173D01*
X111859382Y-74358330D01*
X112069051Y-74433553D01*
X112309003Y-74543699D01*
X112310559Y-74544502D01*
X112637094Y-74807477D01*
X112884972Y-75218740D01*
X112983026Y-75491226D01*
X113084985Y-75831666D01*
X113180322Y-75482886D01*
X113387254Y-75015567D01*
X113722654Y-74658372D01*
X114186887Y-74410954D01*
X114375202Y-74351490D01*
X114495695Y-74311747D01*
X114493117Y-74273931D01*
X114351413Y-74216541D01*
X114248750Y-74182155D01*
X113867361Y-74026641D01*
X113599852Y-73829225D01*
X113392776Y-73541725D01*
X113274267Y-73303654D01*
X113151856Y-73040410D01*
X113078855Y-72914793D01*
X113036521Y-72909419D01*
X113006109Y-73006903D01*
X112997789Y-73047217D01*
X112830389Y-73466840D01*
X112521111Y-73829177D01*
X112112834Y-74096000D01*
X111874067Y-74216077D01*
X111772672Y-74289090D01*
X111003284Y-74289090D01*
X111009714Y-74273096D01*
X111165510Y-74191610D01*
X111439572Y-74094450D01*
X111560584Y-74058570D01*
X112002154Y-73900075D01*
X112330306Y-73691450D01*
X112577370Y-73399245D01*
X112775675Y-72990007D01*
X112878070Y-72695382D01*
X112978329Y-72406672D01*
X113036521Y-72272937D01*
X113063523Y-72210882D01*
X113120244Y-72136850D01*
X113132246Y-72148666D01*
G37*
G36*
X106945520Y-73792152D02*
G01*
X106966448Y-73834541D01*
X107044130Y-74049972D01*
X107153365Y-74379334D01*
X107286141Y-74798339D01*
X107434449Y-75282695D01*
X107465837Y-75387166D01*
X107741626Y-76276976D01*
X108004678Y-77034947D01*
X108271922Y-77676900D01*
X108560287Y-78218655D01*
X108886700Y-78676032D01*
X109268092Y-79064851D01*
X109721390Y-79400932D01*
X110263523Y-79700095D01*
X110911419Y-79978160D01*
X111682006Y-80250947D01*
X112592215Y-80534275D01*
X113148084Y-80697325D01*
X113531479Y-80808855D01*
X113862148Y-80906125D01*
X114101772Y-80977795D01*
X114206417Y-81010517D01*
X114197491Y-81053469D01*
X114055206Y-81125748D01*
X113809652Y-81212425D01*
X113783084Y-81220552D01*
X112786483Y-81525855D01*
X111946683Y-81792029D01*
X111256339Y-82021543D01*
X110708109Y-82216868D01*
X110294649Y-82380476D01*
X110163560Y-82438418D01*
X109484485Y-82840421D01*
X108917736Y-83368945D01*
X108464871Y-84022428D01*
X108343485Y-84259317D01*
X108208729Y-84575107D01*
X108038689Y-85022706D01*
X107843956Y-85570921D01*
X107635124Y-86188561D01*
X107422788Y-86844436D01*
X107217539Y-87507353D01*
X107065024Y-88023666D01*
X106987821Y-88245284D01*
X106924844Y-88339692D01*
X106896915Y-88320000D01*
X106859419Y-88202441D01*
X106782067Y-87949558D01*
X106673021Y-87588407D01*
X106540448Y-87146045D01*
X106392511Y-86649529D01*
X106373146Y-86584333D01*
X106099062Y-85691741D01*
X105840162Y-84940010D01*
X105578128Y-84310539D01*
X105294643Y-83784726D01*
X104971388Y-83343969D01*
X104590046Y-82969665D01*
X104132298Y-82643214D01*
X103579825Y-82346014D01*
X102914311Y-82059462D01*
X102117437Y-81764956D01*
X101379417Y-81513251D01*
X99800659Y-80986135D01*
X100489937Y-80986135D01*
X101908344Y-81460901D01*
X102425714Y-81641139D01*
X102937802Y-81832059D01*
X103401537Y-82016731D01*
X103773854Y-82178226D01*
X103941732Y-82260258D01*
X104611008Y-82706884D01*
X105189208Y-83283865D01*
X105652767Y-83966261D01*
X105768820Y-84193853D01*
X105954886Y-84628076D01*
X106167945Y-85194784D01*
X106396742Y-85861508D01*
X106630019Y-86595775D01*
X106801821Y-87173605D01*
X106947432Y-87678210D01*
X107347054Y-86369272D01*
X107571904Y-85647933D01*
X107766365Y-85063938D01*
X107942031Y-84590584D01*
X108110498Y-84201170D01*
X108283361Y-83868993D01*
X108472217Y-83567351D01*
X108688659Y-83269541D01*
X108698834Y-83256320D01*
X109061956Y-82893294D01*
X109586616Y-82532394D01*
X110265027Y-82177472D01*
X111089403Y-81832380D01*
X112051957Y-81500971D01*
X112550564Y-81350832D01*
X113561712Y-81058865D01*
X112804564Y-80832425D01*
X111942587Y-80568042D01*
X111226185Y-80332300D01*
X110635709Y-80116755D01*
X110151513Y-79912962D01*
X109753949Y-79712476D01*
X109423370Y-79506852D01*
X109140127Y-79287647D01*
X109073224Y-79228663D01*
X108737439Y-78877279D01*
X108428056Y-78447341D01*
X108136771Y-77921569D01*
X107855279Y-77282680D01*
X107575275Y-76513392D01*
X107288456Y-75596423D01*
X107228217Y-75389174D01*
X106945520Y-74405700D01*
X106801172Y-74907017D01*
X106579467Y-75647930D01*
X106352537Y-76353199D01*
X106130652Y-76993671D01*
X105924083Y-77540190D01*
X105743100Y-77963602D01*
X105677220Y-78097648D01*
X105270455Y-78709114D01*
X104731178Y-79258592D01*
X104093539Y-79714070D01*
X103768359Y-79887151D01*
X103349936Y-80068890D01*
X102819968Y-80272710D01*
X102231332Y-80480209D01*
X101636907Y-80672984D01*
X101089570Y-80832634D01*
X100934677Y-80873296D01*
X100489937Y-80986135D01*
X99800659Y-80986135D01*
X99770750Y-80976149D01*
X100151750Y-80872312D01*
X100765001Y-80697470D01*
X101410496Y-80499985D01*
X102051493Y-80292219D01*
X102651249Y-80086532D01*
X103173021Y-79895283D01*
X103580065Y-79730832D01*
X103683836Y-79684138D01*
X104366521Y-79291200D01*
X104918441Y-78804825D01*
X105361810Y-78204182D01*
X105472810Y-78006488D01*
X105599710Y-77731458D01*
X105761021Y-77329792D01*
X105944338Y-76837586D01*
X106137255Y-76290936D01*
X106327370Y-75725939D01*
X106502276Y-75178693D01*
X106649569Y-74685292D01*
X106756845Y-74281834D01*
X106765746Y-74244166D01*
X106833633Y-73984986D01*
X106894494Y-73808401D01*
X106928329Y-73757333D01*
X106945520Y-73792152D01*
G37*
%TD*%
M02*
