M48
; DRILL file {KiCad 8.0.8} date 2025-02-20T21:51:05-0700
; FORMAT={-:-/ absolute / inch / decimal}
; #@! TF.CreationDate,2025-02-20T21:51:05-07:00
; #@! TF.GenerationSoftware,Kicad,Pcbnew,8.0.8
; #@! TF.FileFunction,NonPlated,1,2,NPTH
FMAT,2
INCH
; #@! TA.AperFunction,NonPlated,NPTH,ComponentDrill
T1C0.0669
; #@! TA.AperFunction,NonPlated,NPTH,ComponentDrill
T2C0.1575
%
G90
G05
T1
X4.2062Y-4.7812
X4.2062Y-5.5312
X4.6063Y-4.7812
X4.6063Y-5.5312
X4.9562Y-4.0312
X4.9562Y-4.7812
X4.9562Y-5.5312
X5.3563Y-4.0312
X5.3563Y-4.7812
X5.3563Y-5.5312
X5.7062Y-4.0312
X5.7062Y-4.7812
X5.7062Y-5.5312
X6.1063Y-4.0312
X6.1063Y-4.7812
X6.1063Y-5.5312
T2
X4.4062Y-4.7812
X4.4062Y-5.5312
X5.1562Y-4.0312
X5.1562Y-4.7812
X5.1562Y-5.5312
X5.9062Y-4.0312
X5.9062Y-4.7812
X5.9062Y-5.5312
M30
